<?xml version="1.0" encoding="utf-8"?><!DOCTYPE svg PUBLIC "-//W3C//DTD SVG 1.1//EN" "http://www.w3.org/Graphics/SVG/1.1/DTD/svg11.dtd"><svg id="025%20%E4%BF%B1%E4%B9%90%E9%83%A8" width="50" height="50" style="width:50px;height:50px;" version="1.1" xmlns="http://www.w3.org/2000/svg" viewBox="0 0 1024 1024" enable-background="new 0 0 1024 1024" xml:space="preserve"><path fill="#666" d="M756.92 393.42 q189.5 17.73 207.24 208.35 q-17.74 191.72 -207.24 210.56 q-90.88 -3.33 -149.61 -66.49 q-27.71 -28.82 -78.69 -58.74 q21.06 229.4 145.18 299.22 l0 37.68 l-383.45 0 l0 -37.68 q124.13 -69.82 145.18 -299.22 q-50.98 29.92 -78.68 58.74 q-58.74 63.16 -149.61 66.49 q-189.51 -18.84 -207.24 -210.56 q17.73 -190.62 207.24 -208.35 q90.87 1.11 149.61 64.28 q26.6 26.59 74.25 54.3 q-32.14 -94.2 -89.77 -150.72 q-62.06 -59.84 -64.27 -151.83 q17.73 -190.61 205.02 -209.45 q187.29 18.84 205.02 209.45 q-2.22 91.99 -64.28 151.83 q-57.63 56.52 -89.76 150.72 q47.65 -27.71 74.25 -54.3 q58.73 -63.17 149.61 -64.28 l0 0 Z"/></svg>